<?xml version="1.0" encoding="utf-8" ?><svg xmlns="http://www.w3.org/2000/svg" xmlns:xlink="http://www.w3.org/1999/xlink" width="125" height="127" viewBox="0 0 125 127"><path fill="#65B2B8" d="M68.3955 0.156026C69.6113 0.9753 79.6472 11.7788 80.6623 13.1584C83.4234 9.70824 90.1534 2.91985 93.6809 0.333741C96.327 2.74955 98.4667 5.47451 100.681 8.27645C95.9735 10.8835 91.5287 16.3603 87.7383 20.2094C89.5168 21.6249 91.1371 23.4225 92.7747 25.0048C95.2655 27.4114 97.8927 29.7689 100.204 32.3465C98.2261 34.7294 96.1384 37.0339 94.097 39.3635L93.5304 39.4888C90.5959 37.5665 83.532 29.573 80.863 26.6063C80.3637 27.1731 79.8526 27.7291 79.3298 28.2742C77.7625 29.9227 70.2651 38.457 68.5597 38.4999C66.0393 37.6688 63.6456 34.4957 61.8058 32.6484C64.3949 28.4053 70.088 23.0902 74.088 20.0943C69.7259 16.4954 65.494 11.4839 61.3388 7.48772C63.3078 4.80927 66.0104 2.47174 68.3955 0.156026Z"/><path fill="#65B2B8" d="M93.1341 64.1515C94.8441 64.5009 98.3488 68.9524 99.483 70.4096C97.7964 73.5852 90.3316 80.0439 87.4554 82.9116C91.0361 85.7816 96.5223 91.8546 99.7047 95.3724C98.2063 97.723 95.6523 100.156 93.3831 101.778C88.5947 98.5751 85.0964 93.2643 80.6624 89.5584C76.5191 93.5105 72.9341 97.9724 68.6408 101.786C66.427 101.093 63.5616 97.1324 61.9833 95.3857C64.4203 91.871 70.9607 85.8315 74.369 82.9688C70.6754 80.1116 65.2432 74.2406 61.9656 70.6366C62.1202 70.3489 62.2863 70.0675 62.4638 69.7933C63.3768 68.4043 65.8754 64.8133 67.623 64.525C71.0655 63.957 78.0004 73.8177 80.7761 75.7954C81.5635 75.6265 91.4747 65.6321 93.1341 64.1515Z"/><path fill="#65B2B8" d="M30.4728 63.3434C32.5687 65.6236 35.1869 67.6945 36.8999 70.2784C33.4197 74.8597 29.0796 78.7284 25.182 82.9437C29.2199 86.8098 33.3358 91.014 36.7007 95.49C34.7205 97.716 32.7414 100.206 30.5553 102.219C27.4041 100.041 20.3432 92.9804 18.113 89.9123C16.0426 91.9891 7.52217 101.444 5.35508 101.667C3.58772 101.209 1.15933 98.4819 0 97.0414L0 93.6962C3.13842 89.7382 7.08407 86.2412 10.7284 82.7606C7.05968 79.2048 3.48236 75.5558 -2.84217e-14 71.8172L0 69.0055C1.85137 67.2563 3.6429 65.2701 5.6007 63.6514C9.51976 67.0998 14.9568 72.1491 17.6232 76.6058C21.285 72.7003 26.5152 66.5309 30.4728 63.3434Z"/><path fill="#65B2B8" d="M5.61062 0.0675658L13.8799 8.56205C14.7164 9.40886 15.7244 10.148 16.5142 11.0164C17.0433 11.5982 17.1693 12.6629 17.9145 12.949C18.9555 12.7677 29.0572 1.76403 30.5128 0.371064C32.4854 2.87065 34.89 4.98735 36.8486 7.49292C33.5004 11.5295 28.6874 16.2733 24.6557 19.677C29.1184 23.566 33.122 28.0575 37.0975 32.4401C35.157 34.8043 32.7452 36.8978 30.3927 38.8415C25.911 35.3142 21.6408 30.5855 18.0077 26.1981C15.7848 28.4313 7.53903 37.7232 5.29764 38.3356C3.40981 37.9247 1.23148 34.6742 0 33.2344L0 31.413C3.86025 27.7631 7.53267 23.9191 11.2346 20.1102C9.62327 18.7906 8.22356 17.1445 6.74083 15.6784C4.52053 13.483 2.22721 11.3617 0 9.17295L0 5.90454C1.84928 3.94413 3.66717 1.93515 5.61062 0.0675658Z"/></svg>